# xmcd
# Track frame offsets:
# 150
# 15689
# 32585
# 50787
# 67429
# 85579
# 101760
# 118979
# 139520
# 155880
# 173399
# 192186
# 210242
# 225771
# 241765
#
# Disc length: 3479 seconds
# Revision: 18
# Processed by: cddbd v1.5.2PL0 Copyright (c) Steve Scherf et al.
# Submitted via: VisiTrax 2.11.3.279 - For more info visit www.synapsa.com
#
DISCID=c10d950f
DTITLE=Blue - One love
DYEAR=2002
DGENRE=Pop
TTITLE0=Blue - One Love
TTITLE1=Blue - Riders
TTITLE2=Blue - Flexin'
TTITLE3=Blue Feat. Elton John - Seems To Be The Hardest Word, Sorry
TTITLE4=Blue - She Told Me
TTITLE5=Blue - Right Here Waiting
TTITLE6=Blue - U Make Me Wanna
TTITLE7=Blue - Ain't Got You
TTITLE8=Blue - Supersexual
TTITLE9=Blue - Don't Treat Me Like A Fool
TTITLE10=Blue - Get Down
TTITLE11=Blue - Privacy
TTITLE12=Blue - Without You
TTITLE13=Blue - Invitation
TTITLE14=Blue - Like A Friend
EXTD=YEAR: 2002
EXTT0=
EXTT1=
EXTT2=
EXTT3=
EXTT4=
EXTT5=
EXTT6=
EXTT7=
EXTT8=
EXTT9=
EXTT10=
EXTT11=
EXTT12=
EXTT13=
EXTT14=
PLAYORDER=
